<?xml version="1.0" encoding="UTF-8" standalone="no"?>
<!-- Created with Inkscape (http://www.inkscape.org/) -->

<svg
   xmlns:dc="http://purl.org/dc/elements/1.1/"
   xmlns:cc="http://creativecommons.org/ns#"
   xmlns:rdf="http://www.w3.org/1999/02/22-rdf-syntax-ns#"
   xmlns:svg="http://www.w3.org/2000/svg"
   xmlns="http://www.w3.org/2000/svg"
   xmlns:sodipodi="http://sodipodi.sourceforge.net/DTD/sodipodi-0.dtd"
   xmlns:inkscape="http://www.inkscape.org/namespaces/inkscape"
   width="1054.3145"
   height="331.59183"
   id="svg2"
   version="1.1"
   inkscape:version="0.91 r13725"
   sodipodi:docname="LO_delay_schematic.svg">
  <sodipodi:namedview
     id="base"
     pagecolor="#ffffff"
     bordercolor="#666666"
     borderopacity="1.0"
     inkscape:pageopacity="0.0"
     inkscape:pageshadow="2"
     inkscape:zoom="0.7"
     inkscape:cx="764.68832"
     inkscape:cy="82.593917"
     inkscape:document-units="px"
     inkscape:current-layer="layer1"
     showgrid="false"
     fit-margin-top="5"
     fit-margin-left="5"
     fit-margin-right="5"
     fit-margin-bottom="5"
     inkscape:window-width="1680"
     inkscape:window-height="1002"
     inkscape:window-x="0"
     inkscape:window-y="0"
     inkscape:window-maximized="1" />
  <defs
     id="defs4">
    <marker
       inkscape:stockid="Arrow1Mend"
       orient="auto"
       refY="0"
       refX="0"
       id="marker5259"
       style="overflow:visible"
       inkscape:isstock="true">
      <path
         id="path5012"
         d="M 0,0 5,-5 -12.5,0 5,5 0,0 Z"
         style="fill:#000000;fill-opacity:1;fill-rule:evenodd;stroke:#000000;stroke-width:1pt;stroke-opacity:1"
         transform="matrix(-0.4,0,0,-0.4,-4,0)"
         inkscape:connector-curvature="0" />
    </marker>
    <marker
       inkscape:stockid="Arrow1Mend"
       orient="auto"
       refY="0"
       refX="0"
       id="marker5480"
       style="overflow:visible"
       inkscape:isstock="true">
      <path
         id="path4412"
         d="M 0,0 5,-5 -12.5,0 5,5 0,0 Z"
         style="fill:#000000;fill-opacity:1;fill-rule:evenodd;stroke:#000000;stroke-width:1pt;stroke-opacity:1"
         transform="matrix(-0.4,0,0,-0.4,-4,0)"
         inkscape:connector-curvature="0" />
    </marker>
    <marker
       inkscape:stockid="Arrow1Mstart"
       orient="auto"
       refY="0"
       refX="0"
       id="marker5428"
       style="overflow:visible"
       inkscape:isstock="true">
      <path
         id="path5430"
         d="M 0,0 5,-5 -12.5,0 5,5 0,0 Z"
         style="fill:#000000;fill-opacity:1;fill-rule:evenodd;stroke:#000000;stroke-width:1pt;stroke-opacity:1"
         transform="matrix(0.4,0,0,0.4,4,0)"
         inkscape:connector-curvature="0" />
    </marker>
    <marker
       inkscape:isstock="true"
       style="overflow:visible"
       id="marker4897"
       refX="0"
       refY="0"
       orient="auto"
       inkscape:stockid="Arrow1Mstart">
      <path
         transform="matrix(0.4,0,0,0.4,4,0)"
         style="fill:#000000;fill-opacity:1;fill-rule:evenodd;stroke:#000000;stroke-width:1pt;stroke-opacity:1"
         d="M 0,0 5,-5 -12.5,0 5,5 0,0 Z"
         id="path4899"
         inkscape:connector-curvature="0" />
    </marker>
    <marker
       style="overflow:visible"
       id="Arrow2Mend"
       refX="0"
       refY="0"
       orient="auto"
       inkscape:stockid="Arrow2Mend">
      <path
         transform="scale(-0.6,-0.6)"
         d="M 8.7185878,4.0337352 -2.2072895,0.01601326 8.7185884,-4.0017078 c -1.7454984,2.3720609 -1.7354408,5.6174519 -6e-7,8.035443 z"
         style="fill-rule:evenodd;stroke-width:0.625;stroke-linejoin:round"
         id="path3927"
         inkscape:connector-curvature="0" />
    </marker>
    <marker
       style="overflow:visible"
       id="Arrow1Send"
       refX="0"
       refY="0"
       orient="auto"
       inkscape:stockid="Arrow1Send">
      <path
         transform="matrix(-0.2,0,0,-0.2,-1.2,0)"
         style="fill-rule:evenodd;stroke:#000000;stroke-width:1pt"
         d="M 0,0 5,-5 -12.5,0 5,5 0,0 Z"
         id="path3915"
         inkscape:connector-curvature="0" />
    </marker>
    <marker
       style="overflow:visible"
       id="Arrow1Mend"
       refX="0"
       refY="0"
       orient="auto"
       inkscape:stockid="Arrow1Mend">
      <path
         inkscape:connector-curvature="0"
         transform="matrix(-0.4,0,0,-0.4,-4,0)"
         style="fill-rule:evenodd;stroke:#000000;stroke-width:1pt"
         d="M 0,0 5,-5 -12.5,0 5,5 0,0 Z"
         id="path3909" />
    </marker>
  </defs>
  <metadata
     id="metadata7">
    <rdf:RDF>
      <cc:Work
         rdf:about="">
        <dc:format>image/svg+xml</dc:format>
        <dc:type
           rdf:resource="http://purl.org/dc/dcmitype/StillImage" />
        <dc:title></dc:title>
      </cc:Work>
    </rdf:RDF>
  </metadata>
  <g
     transform="translate(417.06955,-380.91324)"
     id="layer1"
     inkscape:groupmode="layer"
     inkscape:label="Layer 1">
    <text
       xml:space="preserve"
       style="font-style:normal;font-variant:normal;font-weight:normal;font-stretch:normal;font-size:40px;line-height:125%;font-family:'Bitstream Vera Sans';-inkscape-font-specification:Sans;letter-spacing:0px;word-spacing:0px;fill:#000000;fill-opacity:1;stroke:none"
       x="-245.46707"
       y="-270.11258"
       id="text4176"
       sodipodi:linespacing="125%"
       transform="translate(-141.28571,315.36218)"><tspan
         sodipodi:role="line"
         id="tspan4178"
         x="-245.46707"
         y="-270.11258" /></text>
    <text
       sodipodi:linespacing="125%"
       id="text4412"
       y="561.43756"
       x="-264.52432"
       style="font-style:normal;font-variant:normal;font-weight:normal;font-stretch:normal;font-size:28px;line-height:125%;font-family:'Bitstream Vera Sans';-inkscape-font-specification:Sans;letter-spacing:0px;word-spacing:0px;fill:#000000;fill-opacity:1;stroke:none"
       xml:space="preserve"><tspan
         y="561.43756"
         x="-264.52432"
         id="tspan4414"
         sodipodi:role="line" /></text>
    <g
       id="g4196"
       transform="translate(-160,-200)">
      <circle
         style="fill:none;stroke:#000000;stroke-width:4;stroke-miterlimit:4;stroke-dasharray:none;stroke-dashoffset:0;stroke-opacity:1"
         id="path3157"
         transform="translate(232.71429,465.36218)"
         cx="-295"
         cy="307.85718"
         r="55" />
      <path
         inkscape:connector-curvature="0"
         style="fill:none;stroke:#000000;stroke-width:4;stroke-miterlimit:4;stroke-dasharray:none;stroke-dashoffset:0;stroke-opacity:1"
         d="m -117.57141,774.07652 c 0.37999,-0.39792 0.75998,-0.79585 1.13997,-1.19297 0.37999,-0.39713 0.75998,-0.79345 1.13997,-1.18817 0.37999,-0.39473 0.75998,-0.78785 1.13997,-1.17859 0.37999,-0.39073 0.75998,-0.77907 1.13997,-1.16424 0.37999,-0.38517 0.75999,-0.76717 1.13998,-1.14523 0.37999,-0.37806 0.75998,-0.75217 1.13997,-1.12159 0.37999,-0.36942 0.75998,-0.73415 1.13997,-1.09345 0.37999,-0.35929 0.75998,-0.71316 1.13997,-1.06089 0.37999,-0.34773 0.75998,-0.68931 1.13997,-1.02407 0.37999,-0.33475 0.75998,-0.66268 1.13997,-0.98312 0.37999,-0.32043 0.75998,-0.63338 1.13997,-0.93821 0.37999,-0.30483 0.75998,-0.60154 1.13997,-0.88953 0.37999,-0.28799 0.75998,-0.56726 1.13997,-0.83726 0.37999,-0.27 0.75999,-0.53071 1.13998,-0.78163 0.37999,-0.25091 0.75998,-0.49202 1.13997,-0.72284 0.37999,-0.23081 0.75998,-0.45134 1.13997,-0.66114 0.37999,-0.2098 0.75998,-0.40886 1.13997,-0.59679 0.37999,-0.18793 0.75998,-0.36472 1.13997,-0.53002 0.37999,-0.16531 0.75998,-0.31912 1.13997,-0.46114 0.37999,-0.14201 0.75998,-0.27222 1.13997,-0.39038 0.37999,-0.11815 0.75998,-0.22424 1.13997,-0.31805 0.37999,-0.0938 0.75998,-0.17536 1.13997,-0.24445 0.37999,-0.0691 0.75999,-0.12576 1.13998,-0.16987 0.37999,-0.0441 0.75998,-0.0756 1.13997,-0.0946 0.37999,-0.0189 0.75998,-0.0253 1.13997,-0.0189 0.37999,0.006 0.75998,0.0253 1.13997,0.0568 0.37999,0.0315 0.75998,0.0757 1.13997,0.13229 0.37999,0.0566 0.75998,0.12576 1.13997,0.20726 0.37999,0.0815 0.75998,0.17536 1.13997,0.2814 0.37999,0.10604 0.75998,0.22425 1.13997,0.3544 0.37999,0.13014 0.75998,0.27223 1.13997,0.42597 0.37999,0.15373 0.75999,0.31912 1.13998,0.49582 0.37999,0.17671 0.75998,0.36473 1.13997,0.56369 0.37999,0.19897 0.75998,0.40887 1.13997,0.62929 0.37999,0.22042 0.75998,0.45135 1.13997,0.69234 0.37999,0.24099 0.75998,0.49203 1.13997,0.75261 0.37999,0.26059 0.75998,0.53072 1.13997,0.80985 0.37999,0.27914 0.75998,0.56727 1.13997,0.86383 0.37999,0.29656 0.75998,0.60154 1.13997,0.91433 0.37999,0.31279 0.75998,0.63339 1.13997,0.96115 0.37999,0.32777 0.75999,0.66269 1.13998,1.0041 0.37999,0.34142 0.75998,0.68932 1.13997,1.04301 0.37999,0.35369 0.75998,0.71317 1.13997,1.07771 0.37999,0.36454 0.75998,0.73415 1.13997,1.10807 0.37999,0.37393 0.75998,0.75218 1.13997,1.13398 0.37999,0.38181 0.75998,0.76718 1.13997,1.15532 0.37999,0.38815 0.75998,0.77908 1.13997,1.17201 0.37999,0.39293 0.75998,0.78785 1.13997,1.18397 0.37999,0.39612 0.75998,0.79345 1.13997,1.19117 0.37999,0.39773 0.75999,0.79585 1.13998,1.19358 0.37999,0.39772 0.75998,0.79505 1.13997,1.19117 0.37999,0.39612 0.75998,0.79104 1.13997,1.18397 0.37999,0.39293 0.75998,0.78386 1.13997,1.17201 0.37999,0.38814 0.75998,0.77351 1.13997,1.15532 0.37999,0.3818 0.75998,0.76005 1.13997,1.13398 0.37999,0.37392 0.75998,0.74353 1.13997,1.10807 0.37999,0.36454 0.75998,0.72402 1.13997,1.07771 0.37999,0.35369 0.75998,0.70159 1.13997,1.04301 0.37999,0.34141 0.75999,0.67633 1.13998,1.0041 0.37999,0.32776 0.75998,0.64836 1.13997,0.96115 0.37999,0.31279 0.75998,0.61777 1.13997,0.91433 0.37999,0.29656 0.75998,0.58469 1.13997,0.86383 0.37999,0.27913 0.75998,0.54926 1.13997,0.80985 0.37999,0.26058 0.75998,0.51162 1.13997,0.75261 0.37999,0.24099 0.75998,0.47192 1.13997,0.69234 0.37999,0.22042 0.75998,0.43032 1.13997,0.62929 0.37999,0.19896 0.75998,0.38698 1.13997,0.56369 0.37999,0.1767 0.75999,0.34209 1.13998,0.49582 0.37999,0.15374 0.75998,0.29583 1.13997,0.42597 0.37999,0.13015 0.75998,0.24836 1.13997,0.3544 0.37999,0.10604 0.75998,0.1999 1.13997,0.2814 0.37999,0.0815 0.75998,0.15063 1.13997,0.20726 0.37999,0.0566 0.75998,0.10076 1.13997,0.13229 0.37999,0.0315 0.75998,0.0505 1.13997,0.0568 0.37999,0.006 0.75998,-10e-6 1.13997,-0.0189 0.37999,-0.0189 0.75998,-0.0505 1.13997,-0.0946 0.37999,-0.0441 0.75999,-0.10077 1.13998,-0.16987 0.37999,-0.0691 0.75998,-0.15063 1.13997,-0.24445 0.37999,-0.0938 0.75998,-0.1999 1.13997,-0.31805 0.37999,-0.11816 0.75998,-0.24837 1.13997,-0.39038 0.37999,-0.14202 0.75998,-0.29583 1.13997,-0.46114 0.37999,-0.1653 0.75998,-0.34209 1.13997,-0.53002 0.37999,-0.18793 0.75998,-0.38699 1.13997,-0.59679 0.37999,-0.2098 0.75998,-0.43033 1.13997,-0.66114 0.37999,-0.23082 0.75998,-0.47193 1.13997,-0.72284 0.37999,-0.25092 0.75999,-0.51163 1.13998,-0.78163 0.37999,-0.27 0.75998,-0.54927 1.13997,-0.83726 0.37999,-0.28799 0.75998,-0.5847 1.13997,-0.88953 0.37999,-0.30483 0.75998,-0.61778 1.13997,-0.93821 0.37999,-0.32044 0.75998,-0.64837 1.13997,-0.98312 0.37999,-0.33476 0.75998,-0.67634 1.13997,-1.02407 0.37999,-0.34773 0.75998,-0.7016 1.13997,-1.06089 0.37999,-0.3593 0.75998,-0.72403 1.13997,-1.09345 0.37999,-0.36942 0.75998,-0.74353 1.13997,-1.12159 0.37999,-0.37806 0.75999,-0.76006 1.13998,-1.14523 0.37999,-0.38517 0.75998,-0.77351 1.13997,-1.16424 0.37999,-0.39074 0.75998,-0.78386 1.13997,-1.17859 0.37999,-0.39472 0.75998,-0.79104 1.13997,-1.18817 0.37999,-0.39712 0.75998,-0.79505 1.13997,-1.19297"
         title="sin(x)"
         id="path4021" />
    </g>
    <rect
       style="fill:none;fill-opacity:1;stroke:#000000;stroke-width:4;stroke-miterlimit:4;stroke-dasharray:none;stroke-dashoffset:0;stroke-opacity:1"
       id="rect4904"
       width="142.85715"
       height="85.714287"
       x="-113.96652"
       y="431.93359" />
    <g
       id="g4914"
       transform="translate(3.2611578,4e-5)">
      <path
         inkscape:connector-curvature="0"
         id="path4906"
         d="m -224.53793,628.21932 0,78.57143"
         style="fill:none;fill-rule:evenodd;stroke:#000000;stroke-width:4;stroke-linecap:butt;stroke-linejoin:miter;stroke-miterlimit:4;stroke-dasharray:none;stroke-opacity:1" />
      <path
         style="fill:none;fill-rule:evenodd;stroke:#000000;stroke-width:4;stroke-linecap:butt;stroke-linejoin:miter;stroke-miterlimit:4;stroke-dasharray:none;stroke-opacity:1"
         d="m -196.68079,671.50504 -55.71429,0"
         id="path4908"
         inkscape:connector-curvature="0" />
      <path
         inkscape:connector-curvature="0"
         id="path4910"
         d="m -203.82365,688.50504 -41.42857,0"
         style="fill:none;fill-rule:evenodd;stroke:#000000;stroke-width:4;stroke-linecap:butt;stroke-linejoin:miter;stroke-miterlimit:4;stroke-dasharray:none;stroke-opacity:1" />
      <path
         style="fill:none;fill-rule:evenodd;stroke:#000000;stroke-width:4;stroke-linecap:butt;stroke-linejoin:miter;stroke-miterlimit:4;stroke-dasharray:none;stroke-opacity:1"
         d="m -212.39508,705.50504 -24.28571,0"
         id="path4912"
         inkscape:connector-curvature="0" />
    </g>
    <path
       inkscape:connector-curvature="0"
       id="path4922"
       d="m -221.27677,517.50508 0,-42.85714 635.88169,0 0,30.71424"
       style="fill:none;fill-rule:evenodd;stroke:#000000;stroke-width:4;stroke-linecap:butt;stroke-linejoin:miter;stroke-miterlimit:4;stroke-dasharray:none;stroke-opacity:1"
       sodipodi:nodetypes="cccc" />
    <path
       style="fill:none;fill-opacity:1;stroke:#000000;stroke-width:4;stroke-miterlimit:4;stroke-dasharray:none;stroke-dashoffset:0;stroke-opacity:1"
       id="path4934"
       sodipodi:type="arc"
       sodipodi:cx="-68.395096"
       sodipodi:cy="519.93359"
       sodipodi:rx="45.714287"
       sodipodi:ry="45.714287"
       sodipodi:start="4.712389"
       sodipodi:end="0"
       sodipodi:open="true"
       d="m -68.395095,474.21931 a 45.714287,45.714287 0 0 1 45.714286,45.71428" />
    <g
       id="g4978">
      <circle
         r="60"
         cy="535.36218"
         cx="161.74776"
         id="path4936"
         style="fill:none;fill-opacity:1;stroke:#000000;stroke-width:4;stroke-miterlimit:4;stroke-dasharray:none;stroke-dashoffset:0;stroke-opacity:1" />
      <circle
         style="fill:none;fill-opacity:1;stroke:#000000;stroke-width:4;stroke-miterlimit:4;stroke-dasharray:none;stroke-dashoffset:0;stroke-opacity:1"
         id="circle4938"
         cx="181.74776"
         cy="535.36218"
         r="60" />
      <circle
         r="60"
         cy="535.36218"
         cx="201.74776"
         id="circle4940"
         style="fill:none;fill-opacity:1;stroke:#000000;stroke-width:4;stroke-miterlimit:4;stroke-dasharray:none;stroke-dashoffset:0;stroke-opacity:1" />
      <circle
         style="fill:none;fill-opacity:1;stroke:#000000;stroke-width:4;stroke-miterlimit:4;stroke-dasharray:none;stroke-dashoffset:0;stroke-opacity:1"
         id="circle4942"
         cx="221.74776"
         cy="535.36218"
         r="60" />
      <circle
         r="60"
         cy="535.36218"
         cx="241.74776"
         id="circle4944"
         style="fill:none;fill-opacity:1;stroke:#000000;stroke-width:4;stroke-miterlimit:4;stroke-dasharray:none;stroke-dashoffset:0;stroke-opacity:1" />
    </g>
    <path
       style="fill:none;fill-rule:evenodd;stroke:#000000;stroke-width:4;stroke-linecap:butt;stroke-linejoin:miter;stroke-miterlimit:4;stroke-dasharray:none;stroke-opacity:1"
       d="m -22.53794,519.64789 0,132.85715 437.14285,0 0,-30.00001"
       id="path4946"
       inkscape:connector-curvature="0"
       sodipodi:nodetypes="cccc" />
    <text
       xml:space="preserve"
       style="font-style:normal;font-variant:normal;font-weight:normal;font-stretch:normal;font-size:35px;line-height:125%;font-family:'Bitstream Vera Sans';-inkscape-font-specification:'Bitstream Vera Sans';letter-spacing:0px;word-spacing:0px;fill:#000000;fill-opacity:1;stroke:none;stroke-width:1px;stroke-linecap:butt;stroke-linejoin:miter;stroke-opacity:1"
       x="-413.96652"
       y="585.36218"
       id="text4964"
       sodipodi:linespacing="125%"><tspan
         sodipodi:role="line"
         id="tspan4966"
         x="-413.96652"
         y="585.36218">source</tspan></text>
    <text
       xml:space="preserve"
       style="font-style:normal;font-variant:normal;font-weight:normal;font-stretch:normal;font-size:35px;line-height:125%;font-family:'Bitstream Vera Sans';-inkscape-font-specification:'Bitstream Vera Sans';letter-spacing:0px;word-spacing:0px;fill:#000000;fill-opacity:1;stroke:none;stroke-width:1px;stroke-linecap:butt;stroke-linejoin:miter;stroke-opacity:1"
       x="-106.25222"
       y="416.50504"
       id="text4968"
       sodipodi:linespacing="125%"><tspan
         sodipodi:role="line"
         id="tspan4970"
         x="-106.25222"
         y="416.50504">coupler</tspan></text>
    <text
       xml:space="preserve"
       style="font-style:normal;font-variant:normal;font-weight:normal;font-stretch:normal;font-size:35px;line-height:125%;font-family:'Bitstream Vera Sans';-inkscape-font-specification:'Bitstream Vera Sans';text-align:center;letter-spacing:0px;word-spacing:0px;text-anchor:middle;fill:#000000;fill-opacity:1;stroke:none;stroke-width:1px;stroke-linecap:butt;stroke-linejoin:miter;stroke-opacity:1"
       x="201.79903"
       y="412.50504"
       id="text4972"
       sodipodi:linespacing="125%"><tspan
         sodipodi:role="line"
         x="201.79903"
         y="412.50504"
         id="tspan4976">delay line,</tspan><tspan
         sodipodi:role="line"
         x="201.79903"
         y="456.25504"
         id="tspan4987">variable length</tspan></text>
    <text
       xml:space="preserve"
       style="font-style:normal;font-variant:normal;font-weight:normal;font-stretch:normal;font-size:35px;line-height:125%;font-family:'Bitstream Vera Sans';-inkscape-font-specification:'Bitstream Vera Sans';letter-spacing:0px;word-spacing:0px;fill:#000000;fill-opacity:1;stroke:none;stroke-width:1px;stroke-linecap:butt;stroke-linejoin:miter;stroke-opacity:1"
       x="300.89062"
       y="699.64789"
       id="text4991"
       sodipodi:linespacing="125%"><tspan
         sodipodi:role="line"
         id="tspan4993"
         x="300.89062"
         y="699.64789">demodulator</tspan></text>
    <g
       id="g5304"
       transform="translate(0,-8)">
      <path
         inkscape:connector-curvature="0"
         id="path4956"
         d="m 371.96203,529.57647 83.57142,83.57142"
         style="fill:none;fill-rule:evenodd;stroke:#000000;stroke-width:4;stroke-linecap:butt;stroke-linejoin:miter;stroke-miterlimit:4;stroke-dasharray:none;stroke-opacity:1" />
      <g
         id="g5300">
        <circle
           r="60"
           cy="571.36218"
           cx="413.74774"
           id="circle4954"
           style="fill:none;fill-opacity:1;stroke:#000000;stroke-width:4;stroke-miterlimit:4;stroke-dasharray:none;stroke-dashoffset:0;stroke-opacity:1" />
        <path
           inkscape:connector-curvature="0"
           id="path4958"
           d="m 371.96203,613.14789 83.57142,-83.57142"
           style="fill:none;fill-rule:evenodd;stroke:#000000;stroke-width:4;stroke-linecap:butt;stroke-linejoin:miter;stroke-miterlimit:4;stroke-dasharray:none;stroke-opacity:1" />
      </g>
      <path
         inkscape:connector-curvature="0"
         id="path4989"
         d="m 474.60488,569.64787 150.00001,0"
         style="fill:none;fill-rule:evenodd;stroke:#000000;stroke-width:3.99999928;stroke-linecap:butt;stroke-linejoin:miter;stroke-miterlimit:4;stroke-dasharray:none;stroke-opacity:1;marker-end:url(#marker5259)" />
      <text
         sodipodi:linespacing="125%"
         id="text4995"
         y="556.79077"
         x="494.97424"
         style="font-style:normal;font-variant:normal;font-weight:normal;font-stretch:normal;font-size:35px;line-height:125%;font-family:'Bitstream Vera Sans';-inkscape-font-specification:'Bitstream Vera Sans';letter-spacing:0px;word-spacing:0px;fill:#000000;fill-opacity:1;stroke:none;stroke-width:1px;stroke-linecap:butt;stroke-linejoin:miter;stroke-opacity:1"
         xml:space="preserve"><tspan
           y="556.79077"
           x="494.97424"
           id="tspan4997"
           sodipodi:role="line">I &amp; Q</tspan></text>
    </g>
  </g>
</svg>
